<svg width="155" height="153" viewBox="0 0 155 153" fill="none" xmlns="http://www.w3.org/2000/svg">
<g filter="url(#filter0_d_3_86)">
<path fill-rule="evenodd" clip-rule="evenodd" d="M138.062 130.688H16.9375C9.89631 130.688 4.1875 124.979 4.1875 117.938V47.8125C4.1875 40.7713 9.89631 35.0625 16.9375 35.0625H45.625C45.625 35.0625 49.2109 34.6641 52 31.875L58.375 25.5C58.375 25.5 60.8644 22.3125 64.75 22.3125H90.25C94.432 22.3125 96.625 25.5 96.625 25.5L103 31.875C105.789 34.6641 109.375 35.0625 109.375 35.0625H115.75C115.75 31.5435 118.606 28.6875 122.125 28.6875H128.5C132.019 28.6875 134.875 31.5435 134.875 35.0625H138.062C145.104 35.0625 150.812 40.7713 150.812 47.8125V117.938C150.812 124.979 145.104 130.688 138.062 130.688ZM144.438 47.8125C144.438 44.2935 141.581 41.4375 138.062 41.4375L128.628 41.4248C128.583 41.4248 128.545 41.4375 128.5 41.4375H122.125C122.052 41.4375 121.978 41.4184 121.905 41.4152L108.674 41.3961C107.702 41.2909 102.653 40.5386 98.4961 36.3821L91.7067 29.5928L91.3752 29.1114C91.3688 29.1083 90.8747 28.6875 90.25 28.6875H64.75C64.2623 28.6875 63.5547 29.2549 63.3985 29.4238L63.1594 29.7298L56.5071 36.3789C52.3474 40.5386 47.2984 41.2877 46.3294 41.3929L16.9375 41.4375C13.4185 41.4375 10.5625 44.2935 10.5625 47.8125V117.938C10.5625 121.456 13.4185 124.312 16.9375 124.312H138.062C141.581 124.312 144.438 121.456 144.438 117.938V47.8125ZM131.688 111.562H125.312C123.55 111.562 122.125 110.138 122.125 108.375C122.125 106.612 123.55 105.188 125.312 105.188H131.688C133.45 105.188 134.875 106.612 134.875 108.375C134.875 110.138 133.45 111.562 131.688 111.562ZM131.688 98.8125H125.312C123.55 98.8125 122.125 97.3877 122.125 95.625C122.125 93.8623 123.55 92.4375 125.312 92.4375H131.688C133.45 92.4375 134.875 93.8623 134.875 95.625C134.875 97.3877 133.45 98.8125 131.688 98.8125ZM120.531 82.875C112.61 82.875 106.188 76.4522 106.188 68.5312C106.188 60.6103 112.61 54.1875 120.531 54.1875C128.452 54.1875 134.875 60.6103 134.875 68.5312C134.875 76.4522 128.452 82.875 120.531 82.875ZM120.531 60.5625C116.129 60.5625 112.562 64.1293 112.562 68.5312C112.562 72.9332 116.129 76.5 120.531 76.5C124.933 76.5 128.5 72.9332 128.5 68.5312C128.5 64.1293 124.933 60.5625 120.531 60.5625ZM109.375 92.4375H115.75C117.513 92.4375 118.938 93.8623 118.938 95.625C118.938 97.3877 117.513 98.8125 115.75 98.8125H109.375C107.616 98.8125 106.188 97.3877 106.188 95.625C106.188 93.8623 107.616 92.4375 109.375 92.4375ZM109.375 105.188H115.75C117.513 105.188 118.938 106.612 118.938 108.375C118.938 110.138 117.513 111.562 115.75 111.562H109.375C107.616 111.562 106.188 110.138 106.188 108.375C106.188 106.612 107.616 105.188 109.375 105.188ZM93.4375 114.75H23.3125C21.5498 114.75 20.125 113.325 20.125 111.562V54.1875C20.125 52.428 21.5498 51 23.3125 51H93.4375C95.2002 51 96.625 52.428 96.625 54.1875V111.562C96.625 113.325 95.2002 114.75 93.4375 114.75ZM73.4168 108.375C72.9929 107.135 72.0589 105.589 71.7242 104.99C71.7115 104.968 70.8381 102.647 65.4481 102.376C65.4449 102.376 65.4449 102.376 65.4417 102.376C63.6567 102.376 61.4191 101.139 61.4191 97.9359C61.4191 97.1359 61.4828 94.4456 61.4828 94.4456C61.4764 94.452 61.4764 94.452 61.4764 94.452C61.4701 94.452 61.4414 91.8223 61.4414 91.8223C61.4414 91.8223 62.8694 91.2103 64.6703 89.3807C65.7222 88.4021 67.0546 85.6035 67.0546 85.6035C67.3414 83.6591 67.8514 80.2549 67.8514 78.3169C67.8514 74.2719 63.1913 70.0772 58.375 70.0772C53.3324 70.0772 48.8986 73.9309 48.8986 78.3169C48.8986 80.2549 49.3098 83.6591 49.5966 85.6035C49.5966 85.6035 51.0278 88.4021 52.0797 89.3807C53.8774 91.2071 55.2066 91.8223 55.2066 91.8223C55.2066 91.8223 55.1779 94.452 55.1716 94.452C55.1716 94.452 55.1716 94.452 55.1652 94.4456C55.1652 94.4456 55.2289 97.1359 55.2289 97.9359C55.2289 101.139 52.8925 102.376 51.1075 102.376C51.1043 102.376 51.1043 102.376 51.1011 102.376C45.7143 102.647 45.0385 104.968 45.0258 104.99C44.6911 105.589 43.6551 107.135 43.2344 108.375H73.4168ZM90.25 57.375H26.5V108.375H35.3836C36.0051 106.912 36.8721 105.108 37.8666 103.715C37.9304 103.68 39.9034 96.6673 50.4923 96.5366C49.6731 96.0107 48.9846 95.0417 48.1877 94.2608C47.5343 93.8528 44.3277 91.5833 43.5882 87.5415C43.3651 86.1326 42.31 81.0996 42.31 78.3201C42.31 70.0676 49.0006 63.7373 58.2188 63.7373C58.2762 63.7373 58.4738 63.7373 58.5312 63.7373C68.0937 63.7373 74.2424 70.0676 74.2424 78.3201C74.2424 81.0964 73.2861 86.1294 73.063 87.5415C72.3235 91.5864 69.4133 93.8528 68.7599 94.2608C67.963 95.0417 66.28 96.5079 66.2577 96.5366C76.8466 96.6673 78.8196 103.68 78.8834 103.715C79.8779 105.108 80.7481 106.912 81.3664 108.375H90.25V57.375Z" fill="black"/>
</g>
<defs>
<filter id="filter0_d_3_86" x="-3" y="0" width="161" height="161" filterUnits="userSpaceOnUse" color-interpolation-filters="sRGB">
<feFlood flood-opacity="0" result="BackgroundImageFix"/>
<feColorMatrix in="SourceAlpha" type="matrix" values="0 0 0 0 0 0 0 0 0 0 0 0 0 0 0 0 0 0 127 0" result="hardAlpha"/>
<feOffset dy="4"/>
<feGaussianBlur stdDeviation="2"/>
<feComposite in2="hardAlpha" operator="out"/>
<feColorMatrix type="matrix" values="0 0 0 0 0 0 0 0 0 0 0 0 0 0 0 0 0 0 0.25 0"/>
<feBlend mode="normal" in2="BackgroundImageFix" result="effect1_dropShadow_3_86"/>
<feBlend mode="normal" in="SourceGraphic" in2="effect1_dropShadow_3_86" result="shape"/>
</filter>
</defs>
</svg>
