<svg width="177" height="177" viewBox="0 0 177 177" fill="none" xmlns="http://www.w3.org/2000/svg">
<g clip-path="url(#clip0_3_73)">
<path d="M27.5235 49.383C29.1527 49.383 30.4735 48.0622 30.4735 46.433C30.4735 44.8037 29.1527 43.483 27.5235 43.483C25.8943 43.483 24.5735 44.8037 24.5735 46.433C24.5735 48.0622 25.8943 49.383 27.5235 49.383Z" fill="black"/>
<path d="M47.2 49.383C48.8292 49.383 50.15 48.0622 50.15 46.433C50.15 44.8037 48.8292 43.483 47.2 43.483C45.5708 43.483 44.25 44.8037 44.25 46.433C44.25 48.0622 45.5708 49.383 47.2 49.383Z" fill="black"/>
<path d="M37.3765 49.383C39.0057 49.383 40.3265 48.0622 40.3265 46.433C40.3265 44.8037 39.0057 43.483 37.3765 43.483C35.7473 43.483 34.4265 44.8037 34.4265 46.433C34.4265 48.0622 35.7473 49.383 37.3765 49.383Z" fill="black"/>
<path d="M59 89.2375L67.85 80.3875C68.4055 79.832 68.7176 79.0786 68.7176 78.293C68.7176 77.5074 68.4055 76.754 67.85 76.1985C67.2945 75.643 66.5411 75.3309 65.7555 75.3309C64.9699 75.3309 64.2165 75.643 63.661 76.1985L52.687 87.202C52.1376 87.7547 51.8292 88.5024 51.8292 89.2818C51.8292 90.0611 52.1376 90.8088 52.687 91.3615L63.661 102.365C63.9352 102.642 64.2615 102.861 64.621 103.011C64.9805 103.161 65.3661 103.238 65.7555 103.238C66.1449 103.238 66.5305 103.161 66.89 103.011C67.2495 102.861 67.5758 102.642 67.85 102.365C68.3994 101.812 68.7078 101.065 68.7078 100.285C68.7078 99.5059 68.3994 98.7582 67.85 98.2055L59 89.2375Z" fill="black"/>
<path d="M101.244 102.306C101.797 102.855 102.544 103.164 103.324 103.164C104.103 103.164 104.851 102.855 105.403 102.306L116.407 91.45C116.956 90.8973 117.265 90.1496 117.265 89.3703C117.265 88.5909 116.956 87.8432 116.407 87.2905L105.403 76.287C104.848 75.7354 104.096 75.4271 103.313 75.4299C102.53 75.4327 101.781 75.7463 101.229 76.3018C100.678 76.8573 100.369 77.6091 100.372 78.392C100.375 79.1748 100.688 79.9244 101.244 80.476L110.094 89.326L101.244 98.176C100.703 98.7275 100.401 99.4689 100.401 100.241C100.401 101.013 100.703 101.755 101.244 102.306Z" fill="black"/>
<path d="M91.45 77.1425C91.1133 76.9475 90.7414 76.8209 90.3556 76.7703C89.9698 76.7196 89.5778 76.7457 89.2021 76.8472C88.8264 76.9486 88.4746 77.1234 88.1667 77.3614C87.8589 77.5994 87.6012 77.896 87.4085 78.234L76.523 97.35C76.3096 97.6858 76.1662 98.0612 76.1017 98.4538C76.0371 98.8464 76.0526 99.248 76.1473 99.6345C76.2419 100.021 76.4138 100.384 76.6525 100.702C76.8912 101.021 77.1918 101.288 77.5363 101.487C77.8807 101.686 78.2619 101.813 78.6568 101.861C79.0518 101.909 79.4524 101.877 79.8345 101.766C80.2166 101.655 80.5723 101.468 80.8803 101.216C81.1883 100.964 81.4421 100.653 81.6265 100.3L92.63 81.2725C92.8358 80.9269 92.9688 80.5427 93.0207 80.1438C93.0727 79.7449 93.0424 79.3395 92.9319 78.9527C92.8214 78.5659 92.6329 78.2057 92.3781 77.8944C92.1232 77.5831 91.8074 77.3272 91.45 77.1425Z" fill="black"/>
<path d="M164.787 118C164.613 117.999 164.444 117.944 164.301 117.844C164.159 117.744 164.051 117.603 163.991 117.439C162.817 114.352 161.153 111.473 159.064 108.914C158.965 108.771 158.912 108.601 158.912 108.427C158.912 108.253 158.965 108.084 159.064 107.94C159.962 106.383 160.206 104.533 159.742 102.796C159.277 101.06 158.142 99.5781 156.586 98.6775L154.374 97.35V43.483C154.374 41.1358 153.441 38.8848 151.781 37.2251C150.122 35.5654 147.871 34.633 145.524 34.633H23.6C21.2528 34.633 19.0018 35.5654 17.3421 37.2251C15.6824 38.8848 14.75 41.1358 14.75 43.483V118.236C14.7578 120.057 15.4844 121.8 16.7718 123.088C18.0591 124.375 19.8029 125.102 21.6235 125.109H61.95L59 136.025H55.0765C52.2032 136.026 49.4145 136.997 47.1609 138.78C44.9073 140.562 43.3206 143.052 42.657 145.848H35.4C34.6176 145.848 33.8673 146.159 33.314 146.712C32.7608 147.265 32.45 148.016 32.45 148.798C32.45 149.58 32.7608 150.331 33.314 150.884C33.8673 151.437 34.6176 151.748 35.4 151.748H110.537C110.487 152.453 110.556 153.161 110.743 153.843C110.964 154.708 111.358 155.52 111.9 156.229C112.443 156.939 113.123 157.532 113.9 157.972L120.124 161.571C120.897 162.015 121.75 162.302 122.633 162.416C123.517 162.53 124.415 162.469 125.275 162.236C126.135 162.004 126.941 161.604 127.647 161.059C128.352 160.515 128.943 159.837 129.387 159.064C129.483 158.914 129.62 158.794 129.783 158.721C129.945 158.647 130.125 158.623 130.301 158.651C133.542 159.212 136.855 159.212 140.096 158.651C140.275 158.622 140.459 158.649 140.623 158.728C140.786 158.807 140.921 158.935 141.01 159.094C141.611 160.123 142.473 160.976 143.509 161.566C144.545 162.157 145.718 162.464 146.91 162.457C148.099 162.468 149.27 162.163 150.303 161.571L156.527 157.972C157.3 157.527 157.977 156.932 158.518 156.223C159.06 155.514 159.456 154.705 159.684 153.843C159.918 152.985 159.979 152.089 159.863 151.207C159.746 150.326 159.455 149.477 159.005 148.709C158.904 148.562 158.849 148.387 158.849 148.208C158.849 148.029 158.904 147.854 159.005 147.707C161.088 145.154 162.751 142.286 163.932 139.21C163.988 139.045 164.095 138.901 164.238 138.8C164.382 138.7 164.553 138.647 164.728 138.65C166.525 138.642 168.246 137.925 169.517 136.654C170.788 135.383 171.505 133.662 171.513 131.865V124.667C171.482 122.898 170.762 121.211 169.506 119.966C168.249 118.721 166.556 118.015 164.787 118ZM20.65 43.483C20.65 42.7006 20.9608 41.9503 21.514 41.397C22.0673 40.8438 22.8176 40.533 23.6 40.533H145.524C146.306 40.533 147.056 40.8438 147.609 41.397C148.163 41.9503 148.474 42.7006 148.474 43.483V52.333H20.65V43.483ZM21.6235 119.209C21.4957 119.209 21.3691 119.184 21.251 119.135C21.1328 119.086 21.0255 119.015 20.9351 118.924C20.8447 118.834 20.773 118.727 20.7241 118.609C20.6752 118.49 20.65 118.364 20.65 118.236V58.233H148.474V94.4C147.078 94.0292 145.599 94.1157 144.256 94.6466C142.913 95.1775 141.775 96.125 141.01 97.35C140.918 97.4955 140.785 97.6099 140.627 97.6784C140.469 97.7468 140.294 97.766 140.125 97.7335C136.882 97.2023 133.574 97.2023 130.331 97.7335C130.162 97.7703 129.986 97.7531 129.827 97.6843C129.668 97.6155 129.535 97.4986 129.446 97.35C129.003 96.5766 128.411 95.8986 127.705 95.355C126.998 94.8114 126.191 94.4129 125.33 94.1826C124.469 93.9523 123.571 93.8946 122.688 94.0129C121.804 94.1312 120.953 94.4232 120.183 94.872L113.959 98.471C113.184 98.907 112.505 99.4948 111.962 100.199C111.42 100.904 111.025 101.711 110.802 102.571C110.33 104.311 110.563 106.166 111.451 107.734C111.559 107.873 111.617 108.045 111.617 108.221C111.617 108.397 111.559 108.568 111.451 108.707C109.362 111.266 107.698 114.145 106.525 117.233C106.465 117.396 106.356 117.538 106.214 117.638C106.071 117.738 105.902 117.792 105.728 117.793C104.283 117.796 102.877 118.261 101.716 119.121L21.6235 119.209ZM100.3 136.025H64.9L67.85 125.109H98.825V131.865C98.8439 133.376 99.3625 134.839 100.3 136.025ZM55.106 141.925H107.616C108.29 143.285 109.059 144.596 109.917 145.848H48.8815C49.4384 144.676 50.3158 143.685 51.4121 142.991C52.5084 142.297 53.7788 141.927 55.0765 141.925H55.106ZM165.672 131.865C165.672 132.1 165.579 132.325 165.413 132.491C165.247 132.657 165.022 132.75 164.787 132.75C163.413 132.753 162.072 133.172 160.94 133.951C159.808 134.73 158.938 135.834 158.445 137.116C157.502 139.603 156.167 141.924 154.492 143.989C153.628 145.057 153.106 146.36 152.996 147.729C152.885 149.097 153.191 150.467 153.872 151.659C153.919 151.761 153.944 151.872 153.944 151.984C153.944 152.096 153.919 152.207 153.872 152.308C153.846 152.426 153.796 152.536 153.725 152.633C153.654 152.729 153.563 152.81 153.459 152.869L147.323 156.35C147.221 156.407 147.108 156.443 146.991 156.456C146.875 156.469 146.757 156.459 146.644 156.426C146.532 156.393 146.427 156.338 146.336 156.264C146.245 156.19 146.169 156.099 146.113 155.996C145.416 154.807 144.374 153.858 143.126 153.273C141.878 152.689 140.482 152.496 139.122 152.721C136.525 153.164 133.872 153.164 131.275 152.721C129.912 152.499 128.514 152.696 127.265 153.286C126.017 153.876 124.977 154.831 124.284 156.026C124.161 156.223 123.968 156.367 123.743 156.427C123.518 156.488 123.279 156.46 123.074 156.35L116.85 152.751C116.745 152.692 116.655 152.611 116.583 152.515C116.512 152.418 116.462 152.308 116.437 152.19C116.389 152.089 116.364 151.978 116.364 151.866C116.364 151.754 116.389 151.643 116.437 151.541C117.11 150.347 117.411 148.978 117.301 147.612C117.19 146.245 116.674 144.942 115.817 143.871C114.126 141.811 112.781 139.49 111.835 136.998C111.34 135.749 110.482 134.677 109.373 133.92C108.264 133.163 106.953 132.756 105.61 132.75C105.375 132.75 105.15 132.657 104.984 132.491C104.818 132.325 104.725 132.1 104.725 131.865V124.667C104.721 124.55 104.741 124.433 104.784 124.324C104.827 124.214 104.892 124.115 104.975 124.032C105.058 123.949 105.157 123.884 105.267 123.841C105.376 123.798 105.493 123.778 105.61 123.782C106.98 123.777 108.316 123.357 109.443 122.577C110.57 121.798 111.435 120.696 111.923 119.416C112.863 116.921 114.209 114.599 115.906 112.543C116.762 111.472 117.279 110.169 117.389 108.802C117.5 107.436 117.199 106.067 116.525 104.872C116.477 104.766 116.452 104.65 116.452 104.533C116.452 104.416 116.477 104.301 116.525 104.194C116.549 104.08 116.599 103.973 116.67 103.881C116.742 103.789 116.833 103.714 116.938 103.663L123.162 100.064C123.307 100.024 123.46 100.024 123.605 100.064C123.753 100.066 123.897 100.105 124.026 100.177C124.155 100.249 124.264 100.352 124.343 100.477C125.039 101.668 126.079 102.621 127.327 103.211C128.575 103.801 129.971 103.999 131.334 103.781C133.931 103.339 136.584 103.339 139.181 103.781C140.553 103.966 141.948 103.733 143.185 103.112C144.422 102.491 145.443 101.511 146.113 100.3C146.171 100.203 146.248 100.118 146.338 100.05C146.429 99.9826 146.532 99.9337 146.642 99.9063C146.752 99.8788 146.866 99.8734 146.978 99.8904C147.089 99.9073 147.197 99.9463 147.294 100.005L153.518 103.604C153.623 103.655 153.714 103.73 153.786 103.822C153.857 103.914 153.907 104.021 153.931 104.135C153.979 104.242 154.004 104.357 154.004 104.474C154.004 104.591 153.979 104.707 153.931 104.813C153.252 106.001 152.948 107.366 153.058 108.73C153.169 110.093 153.689 111.391 154.551 112.454C156.227 114.53 157.561 116.861 158.503 119.357C158.969 120.661 159.818 121.793 160.94 122.604C162.062 123.415 163.403 123.867 164.787 123.9C164.904 123.896 165.021 123.916 165.13 123.959C165.24 124.002 165.339 124.067 165.422 124.15C165.505 124.233 165.57 124.332 165.613 124.442C165.656 124.551 165.676 124.668 165.672 124.785V131.865Z" fill="black"/>
<path d="M135.198 114.873C132.55 114.873 129.96 115.658 127.758 117.13C125.555 118.602 123.839 120.693 122.825 123.141C121.811 125.588 121.546 128.281 122.063 130.879C122.58 133.477 123.855 135.863 125.728 137.736C127.601 139.609 129.988 140.885 132.586 141.402C135.184 141.918 137.877 141.653 140.324 140.64C142.771 139.626 144.863 137.909 146.334 135.707C147.806 133.504 148.591 130.915 148.591 128.266C148.591 124.714 147.18 121.307 144.669 118.796C142.157 116.284 138.751 114.873 135.198 114.873ZM135.198 135.759C133.717 135.759 132.268 135.32 131.036 134.496C129.803 133.673 128.843 132.503 128.276 131.133C127.709 129.764 127.56 128.258 127.849 126.804C128.139 125.351 128.852 124.016 129.9 122.968C130.948 121.92 132.283 121.206 133.737 120.917C135.19 120.628 136.697 120.776 138.066 121.343C139.435 121.91 140.605 122.871 141.429 124.103C142.252 125.335 142.691 126.784 142.691 128.266C142.676 130.243 141.88 132.134 140.476 133.526C139.073 134.919 137.176 135.7 135.198 135.7V135.759Z" fill="black"/>
</g>
<defs>
<clipPath id="clip0_3_73">
<rect width="177" height="177" fill="white"/>
</clipPath>
</defs>
</svg>
